/* XPM */
static const char * allfit[] = {
/* width height ncolors chars_per_pixel */
"40 44 8 1",
/* colors */
" 	s None	c None",
".	c firebrick",
"X	c orange",
"o	c peru",
"O	c sienna",
"+	c black",
"@	c sea green",
"#	c slate grey",
/* pixels */
"                                        ",
"                                        ",
"                                        ",
"                      ...               ",
"                    .. . ..             ",
"                  .. . .  ...           ",
"                ..   . .  . ..          ",
"              .. .   ...  .. .          ",
"            ...  .  .. ....  .          ",
"          ..  .  ... ...  .  .          ",
"        ..    . ..XX.. .  .  .          ",
"        . ..  ..X... . .  . ..          ",
"        .  ....XX.o. ...  .. .          ",
"        . ..OO....o... ....  .          ",
"        .. .OO.Oo... ...  .  .          ",
"        .  .OO.OO. ... .  .  .          ",
"        ....OO.OO... . .... ..          ",
"        .  ..O.O..o. ...  ....          ",
"        . ..O...Ooo... ....  .          ",
"        .. .OO.OOoo.X...  .  .          ",
"        .  .OO.OOoo..Xo.  .  .          ",
"        ....OO.OOo..Xoo.  . ..          ",
"        .  ..O.O..o.ooo.+ .. .          ",
"        ....O...Ooo.o.+....  .          ",
"        .  .OO.OOoo.+....@.++.          ",
"        .  .OO.OOoo......@.@..+         ",
"        ....OO.OOo....@@....@.@++       ",
"        .....O.O..o.@@@@..@...@@@++     ",
"        .  .O...Ooo.@@...@@@@.@@@@@+    ",
"        ..+.OO.OOoo...@@.@@..@@@@++     ",
"        .+..OO.OOo..@@@@...@@@@++       ",
"      ++.@...O.O..o.@@@..@@@@++#        ",
"    ++@@..@.O...Ooo.@..@@@@++#####      ",
"   +@@@@@...OO.OOoo..@@@@++#####        ",
"   ++@@@@@@.OO.OO..@@@@++#####          ",
"     ++@@@@@.....@@@@++#####            ",
"    ###++@@@@@.@@@@++#####              ",
"   ######++@@@@@@++#####                ",
"    #######++@@++#####                  ",
"      #######++#####                    ",
"        ##########                      ",
"          ######                        ",
"            ##                          ",
"                                        "};
