/* XPM */
static const char *galaxy_xpm[] = {
/* width height ncolors chars_per_pixel */
"72 56 9 1",
/* colors */
"` c black",
"a c #800000",
"b c #C0C0C0",
"c c #008080",
"d c #808080",
"e c navy blue",
"f c white",
"g c #008000",
"h c #808000",
/* pixels */
"````````````````````````````````````````````````````````````````````````",
"````````````````````````````````````````````````````````````````````````",
"````````````````````````````````````````````````````````````````````d```",
"``````````````````````````````````````````````````````````````````````d`",
"```````````````````````````````````````````````````````````b````````c```",
"``````````````````````````````````````````````````````````````````````d`",
"`````````````````````````````````````````````b`d`````````````b```````g``",
"`````````````````````````````````````````b`````````ad``````````bd`````e`",
"`````````````````````````````````````````````````````````````d```f````h`",
"```````````````````````````````````````b```````dh````````h`d``b```````hd",
"````````````````````````d````````h``````````db```````e``d``ah`d```eddd``",
"`````````````````````````````````````b``````d``ff```hdd`d`dh```d`dd``dd`",
"```````````````````````````fd````````d`d```d```hgd``d``f````d``ddded`bbb",
"```````````````````````````dd````dd`d```ed`bddd`dd`df`dd``h`d```hhdbdbdd",
"``````````````````````db``d``````b`d`db``bhf`dh`dddbdbdddd`ddhdbdd`dbbd`",
"``````````````b`````````f````````````hbdd`ddddddddddddddhdddddd`ddddd``b",
"```````````````````````````````hdddbdhfbddddbddbhbbbdfbddddbfbbdddddhd`d",
"`````````````````````````d`````dbdd`dbdbddbbbbbbbffbbbbbbbbbbbddhd`d``dd",
"`````````````````d````````dddbh`ddbdddbbbbbbbbfbfbbbbbbbbbbdhddd````d``e",
"```````````````d``````c`d```fhddddbdbbfbbbbbfbbbbbbbbbbbbfbddddd`ddd``d`",
"`````````````````````dbd`hddbddbbbbbbbbbfffbffffbfbfbbbbbddb````d`````d`",
"`````````````````````dd`d`dfbbbbbfbbbbfbbfffffffbffbbbbbdbdd`db``h``````",
"```````````````b`h``d`ddddhdbbbbbbbfbfffffffffbfbffbfbbbdd``d`d`hh``e```",
"````````````````````d`d`dfbbbbbbbfffffbfffffffbfbbffbbdd`dhd```dd```````",
"``````````````h`````dddhdddfbfbbfbffffffffffffffffbbbddddd``db````````dd",
"`d`````e````````h`h`hdbddbbbbbffffffffffbffffffbbbbd`ddd``d```````ddd`c`",
"```````````````d``fdddddbbbbbbbffbffffffffffffbbbddddd``````d``dd`ed````",
"```````````````gddd`bdbbbbbbffbbfffffffffffbbbbbdddd`d````f``d``````````",
"``````````````h``ddhdbbbbbbbbfffffffffffbbbbbbdddd````d``````d``````````",
"`d`````````````d`hdbhbbbbbbfbbffffffffbbbbbbbbdhd``ad```````````````````",
"```````d````h``bddddbbbfbbbbfffffffbfbbbdddbbbddddhd````dd````````````dd",
"````````f```ddddddhbbbbbbbbfffffffbbbbbbdbbhdd`bdbe`````````d````dd`d`d`",
"``h```b`h`dgdfaddddbbbbffbbbbbbbbfbbbbbbf`dbfhddd```````````dd``ddd`````",
"b``````d`dddfdfdbbbbbbbfbbbbbbfbdbdbbbbfbd`d````````d``````b`ce```f```c`",
"````dd`h``dfhhhdbbbbbbbbbbbbbhdddbbbdh``````````````b``d``d`````d```d```",
"`aad`dbd`ddddbhbbbfbbbddbbdhbddbdddddd``dd`````````d`````d``````````````",
"`a``dd`dhdfbhhbbbbbdddbddd`dddd`fdbb```dd``````````````dd```````````````",
"`hb``hhddbbfbdbdbbd`dfhd`ddd`d``bbdh`b``b``d`d`d`````b``````````````````",
"d`h`dd`dhbddddddd`d`dbbbd`````dd``````````````````d`````````````````````",
"dddh`hhhhdd`dd`dddbbd`dddddfbdh``d``````````````````````````````````d```",
"fdd``dhhbdddddbbdbdd`ddddd````d``e`````d``e`````e`````````````d`````````",
"dbdb`d`h`d``dddd`````d```````d````d``dd````````````````````b````````````",
"a``dd``bdddd`d```dbd`dd```d`````d``````d````````````````````````e`d`````",
"a`dddd`d`bhf`ddbd`````````````d```d````````b`e``````````````````````````",
"a``d`b`````dd`d```d```bd`b````````d`````````````````````````````````````",
"a```````````````````dbd`d`e`````````````````````````````````````````````",
"```d``dd``d````````d`````d```````````d```````````````d``````````````````",
"db`d````d````d`````````d`d`b`b````````d``````````````````````bd`````````",
"`````````````b`d`````bdb``b`````````````````````````````````````````````",
"```d`b````d`````e````d``````````````````d`````b`````````````````````````",
"```d```dd`````````d``````````````````````````d``````````````````````````",
"ah````````d``````d```````````````````````````````````````````````````g``",
"````````````d``dd`````````````````````````````````````d``````````e```b``",
"```````````d````````e``````d``````````````````````````````````````d``hc`",
"``d```````````````````d``d``d```````````````````````````````````````````",
"````````````````d`c````d``````````````````````````````````````````````b`"
};
