/* XPM */
static char *matrix_xpm[] = {
"32 32 7 1",
" 	c slate grey",
".	c firebrick",
"X	c red",
"o	c firebrick",
"O	c magenta",
"+	c blue",
"@	c cyan",
"                                ",
"                                ",
"                                ",
"                                ",
"                        ..      ",
"                       ..X.     ",
"                      .X.X.     ",
"                      .XX.X.    ",
"                     .XXX.X.    ",
"                     .XXX.XX.   ",
"       ooo          .XXXXX.XX.  ",
"       ooo         .XXXXXX.XX.  ",
"      ooOOo        .XXXXXX.XXX. ",
"     oOoOOOo      .XXXXXXXX.XX. ",
"     oOoOOOo      .XXXXXXXX.XXX.",
"    oOoOOOOOo     ...XXXXXXX.XX.",
"+++oOOoOOOOOOo+++++.X..XXXXX.X.+",
"@@@oOOoOOOOOOo+@@@+..XX..XXX.X.@",
"++ooooooooooooo+++++..XXX.....++",
"+@@@@+@@@@+@@@+@@@@+@.XXXXXX.@+@",
"@@@@+@@@@+@@@+@@@@@+@..XXXX.@@@+",
"@@@@+@@@@+@@@+@@@@@@+@..XX.@@@@@",
"+++++++++++++++++++++++.XX.+++++",
"@@+@@@@@+@@@@+@@@@@@@+@...@+@@@@",
"@+@@@@@+@@@@+@@@@@@@@+@..@@@+@@@",
"+@@@@@+@@@@@+@@@@@@@@+@@@@@@@+@@",
"@@@@@@+@@@@@+@@@@@@@@@+@@@@@@@+@",
"@@@@@+@@@@@@+@@@@@@@@@+@@@@@@@@+",
"++++++++++++++++++++++++++++++++",
"@@@@+@@@@@@+@@@@@@@@@@@+@@@@@@@@",
"@@@@+@@@@@@+@@@@@@@@@@@@+@@@@@@@",
"@@@+@@@@@@+@@@@@@@@@@@@@+@@@@@@@"};
