/* XPM */
static const char *options_particles_range[] = {
"20 20 10 1",
"  c white",
"! c None",
"# c grey40",
"$ c #002EFF",
"% c black",
"& c red1",
"( c #00C900",
") c #A500FF",
"* c #E9FF00",
"+ c cyan1",
"!!!!!!!!!!!!!!!!!!!!",
"!#####!$$!!#####!%%!",
"!#####!$$!!#####!%%!",
"!!!!!!!!!!!!!!!!!!!!",
"!#####!&&!!#####!%%!",
"!#####!&&!!#####!%%!",
"!!!!!!!!!!!!!!!!!!!!",
"!#####!((!!#####!%%!",
"!#####!((!!#####!%%!",
"!!!!!!!!!!!!!!!!!!!!",
"!#####!))!!#####!%%!",
"!#####!))!!#####!%%!",
"!!!!!!!!!!!!!!!!!!!!",
"!#####!**!!#####!%%!",
"!#####!**!!#####!%%!",
"!!!!!!!!!!!!!!!!!!!!",
"!#####!++!!#####!%%!",
"!#####!++!!#####!%%!",
"!!!!!!!!!!!!!!!!!!!!",
"!!!!!!!!!!!!!!!!!!!!"
};
