/* XPM */
static const char *options_piechart[] = {
"20 20 6 1",
"  c white",
"! c None",
"# c black",
"$ c #00C900",
"% c #E9FF00",
"& c red1",
"!!!!!!#######!!!!!!!",
"!!!!##$$$$$$$##!!!!!",
"!!!#%$$$$$$$$$$#!!!!",
"!!#%%%$$$$$$$$$$#!!!",
"!#%%%%%$$$$$$$$$$#!!",
"!#%%%%%$$$$$$$$$$#!!",
"#%%%%%%%$$$$$$$$$$#!",
"#%%%%%%%%$$$$$$$$$#!",
"#%%%%%%%%$$$$$$$$$#!",
"#%%%%%%%%%$$$$$$$$#!",
"#%%%%%%%%&&$$$$$$$#!",
"#%%%%%%%&&&&$$$$$$#!",
"#%%%%%%&&&&&&&$$$$#!",
"#%%%%%&&&&&&&&&$$$#!",
"!#%%%&&&&&&&&&&&&#!!",
"!#%%&&&&&&&&&&&&&#!!",
"!!#&&&&&&&&&&&&&#!!!",
"!!!#&&&&&&&&&&&#!!!!",
"!!!!##&&&&&&&##!!!!!",
"!!!!!!#######!!!!!!!"
};
