/* XPM */
static const char *reload[] = {
/* width height ncolors chars_per_pixel */
"32 32 16 1",
/* colors */
"  c #0000a2003200",
"! c #000000008000",
"# c #000080000000",
"$ c #000080008000",
"% c #800000000000",
"& c #800000008000",
"' c #800080000000",
"( c None         ",
") c None         ",		    
"* c #00000000ff00",
"+ c #0000ff000000",
", c #0000ff00ff00",
"- c #ff0000000000",
". c #ff000000ff00",
"/ c #ff00ff000000",
"0 c #0000ff006000",
/* pixels */
")))))))))))(((((((((((()))))))))",				   
")))))))))))(((((((((((()))))))))",
"))))))))))(            ())))))))",
")))))))))( 000         ())))))))",
"))))))))( 00000         (((())))",
")))))))( 000000            ())))",
")))))))( 000000 (         ()))))",
"))))))( 000000 ((         ()))))",
"))))))( 000000 ()(       ())))))",
")))))( 000000 ()((       (()))))",
"))))))( 00000 ((        (( ())))",
")))))))(  00 ()((((((((((   ()))",
")(((((((((  ()))))))))(  00 ()))",
"(       ()(()))))))))( 00000 ())",
"(((      ())))))))))( 000000 ())",
"))(       ())))))))))( 000000 ()",
")(        ()))))))))))( 00000 ()",
")(         ())))))))))( 000000 (",
"(          ()))))))))((( 00000 (",
")(      (((())))))))( (( 00000 (",
"))(     ()))))))))))( ()( 000 ()",
"))(    (((((((((())(  ((( 000 ()",
")))(            ()(          ())",
")))(  000000000 ()(         ()))",
"))))( 000000000 ((          ()))",
"))))( 000000000 ((         ())))",
")))))( 00000000 ((         ())))",
")))))(  0000000 ()(       ()))))",
"))))))((        ()(       ()))))",
"))))))))((((((((())(  (((())))))",
"))))))))))))))))))))( ()))))))))",
"))))))))))))))))))))( ()))))))))"
} ;
