/* XPM */
static const char * screen2[] = {
/* width height ncolors chars_per_pixel */
"32 32 10 1",
/* colors */
" 	s None	c None",
".	c #EEEEEE",
"X	c #BBBBBB",
"o	c #888888",
"O	c #444444",
"+	c #659898",
"@	c #99CCCC",
"#	c #CBFFFF",
"$	c #00EF00",
"%	c #EF0000",
/* pixels */
"                                ",
"                                ",
"                                ",
"                                ",
"                                ",
"  ............................  ",
" .XXXXXXXXXXXXXXXXXXXXXXXXXXXXo ",
".XXXXXXXXXXXXXXXXXXXXXXXXXXXXXXO",
".XXXXXXXXXXXXXXXXXXXXXXXXXXXXXXO",
".XXXXOOOOOOOOOOOOOOOOOOOOOOXXXXO",
".XXXO++++++++++++++++++++@@.XXXO",
".XXXO+#####################.XXXO",
".XXXO+#+#+#+#+#+#+#########.XXXO",
".XXXO+#####################.XXXO",
".XXXO+#+#+#+#+#############.XXXO",
".XXXO+#####################.XXXO",
".XXXO+#+#+#################.XXXO",
".XXXO+#####################.XXXO",
".XXXO+#+#+#################.XXXO",
".XXXO+#####################.XXXO",
".XXXO+#+#+#+###############.XXXO",
".XXXO+#####################.XXXO",
".XXXO+#+#+#+###############.XXXO",
".XXXO+#####################.XXXO",
".XXXO+#+#+#+#+#+###########.XXXO",
".XXXO+#####################.XXXO",
".XXXO@#####################.XXXO",
".XXXX......................XXXXO",
".XXXXXXXXXXXXXXXXXXXXXXXXXXXXXXO",
".XXX$$XXXXXXXXXXXXXXXXXXXXX$XXXO",
" oXX%%XXXXXXXXXXXXXXXXXXXXXXXXO ",
"  OOOOOOOOOOOOOOOOOOOOOOOOOOOO  "};
