/* XPM */
static char * smoke_xpm[] = {
"67 59 14 1",
" 	c None",
".	c #7B7B7B",
"+	c #848484",
"@	c #8C8C8C",
"#	c #949494",
"$	c #9C9C9C",
"%	c #A5A5A5",
"&	c #ADADAD",
"*	c #B5B5B5",
"=	c #BDBDBD",
"-	c #C6C6C6",
";	c #CECECE",
">	c #D6D6D6",
",	c #DEDEDE",
"                                                                   ",
"                                                                   ",
"                                                                   ",
"                                                                   ",
"                                                                   ",
"                                                                   ",
"                                                                   ",
"                                                                   ",
"                                                                   ",
"                                                                   ",
"                                                                   ",
"                                                                   ",
"                                                                   ",
"                              .                                    ",
"                              .+@@                                 ",
"                              .@@+        .                        ",
"                             ++@@+        .                        ",
"                            .+##@+.      ..           ..           ",
"                            .+$$##@+.    ++.             .         ",
"                            +##$$%#@+    @ .                       ",
"                           +###$$%###@@  .++                       ",
"                          .@##$%%%$&&&&$+@@@#@.             .      ",
"                          @#$$&**&&*===*####%%$#.           @      ",
"                         +#$%&===&*=-=*&*&%%&%$$#+++.  +           ",
"                       .@#$%&*=====-===*==***&$$$@+###+++          ",
"       ....           .@##$%*====-=-=-=***=*&%#$$@@#$@. .          ",
"         +      .     +#%%&&==-===---====*=*$###%%$%$.  +          ",
"         .+.  .+++   +@%**&==;;-----=-===*=*%#@##$##$@ ##          ",
"       +.   +@#+     @$&=*=-;>>;;;;;;--=*%%$#$%##+@@&%%#+          ",
"        +    +@+     #&*=--;;>>>>>>>;;;-=&#.+%&$@++$$&*$@          ",
"             +@++.   @&=--;;>>,,,,>>>>;--=#+@%&$. #$$&*$@.         ",
"             @#@++.  +#&=-;>>,,,,,>>>>;-=*#++$&$.+@+**%            ",
"              .@@##@##$&=;;>,,>>,,,>>;-=%$$. @+@#$@#;-+            ",
"                @#@@#$&=->>>>>>>,,,>>;=&$#@.+  .@@#*-*+            ",
"                 .+@$&*=-;;;>>;>,,,>;;-%#+     +@ #%#              ",
"                  .#%&====--;;;>>,,>;--&.       .#*+               ",
"                    @%*==*==--;>,,,>>*=*                           ",
"                     +%==**==-->,,>;=*&$                           ",
"                     @%&%%%&**=-;;;=*&%#+    #                     ",
"                    ...@$$$%&&&&%%%$$$$#+    #                     ",
"                        .@#$%&%%+    +##     .                     ",
"                          ++.+###.    +                            ",
"                                 .    .                            ",
"                                 .   +.                            ",
"                                       .                           ",
"                                                                   ",
"                                                                   ",
"                                                                   ",
"                                                                   ",
"                                                                   ",
"                                                                   ",
"                                                                   ",
"                                                                   ",
"                                                                   ",
"                                                                   ",
"                                                                   ",
"                                                                   ",
"                                                                   ",
"                                                                   "};
