/* XPM */
static char *test[] = {
/* width height ncolors chars_per_pixel */
"64 64 16 1",
/* colors */
"  c #000000000000",
"! c #ff00ff00ff00",
"# c #00000000ff00",
"$ c #ff0000000000",
"% c #ff000000ff00",
"& c #0000ff000000",
"' c #0000ff00ff00",
"( c #ff00ff000000",
") c #400040004000",
"* c #000000008000",
"+ c #800000000000",
", c #800000008000",
"- c #000080000000",
". c #000080008000",
"/ c #780034000000",
"0 c #c000c000c000",
/* pixels */
"                                                                ",
"                                                                ",
"                                                                ",
"                                                                ",
"                          &&&&&  (((((                          ",
"                      &&&&&&&&&  (((((((((                      ",
"                    &&&&&&&&&&&  (((((((((((                    ",
"                  &&&&&&&&&&&&&  (((((((((((((                  ",
"                &&&&&&&&&&&&&&&  (((((((((((((((                ",
"              &&&&&&&&&&&&&&&&&  (((((((((((((((((              ",
"             &&&&&&&&&&&&&&&&&&  ((((((((((((((((((             ",
"             &&&&&&&&&&&&&&&&&&  (((((((((((((((((              ",
"              &&&&&&&&&&&&&&&&&  ((((((((((((((((               ",
"          --   &&&&&&&&&&&&&&&&  (((((((((((((((   $$$          ",
"         ----   &&&&&&&&&&&&&&&  ((((((((((((((   $$$$$         ",
"        ------   &&&&&&&&&&&&&&  (((((((((((((   $$$$$$$        ",
"        -------   &&&&&&&&&&&&&  ((((((((((((   $$$$$$$$        ",
"       ---------   &&&&&&&&&&&&  (((((((((((   $$$$$$$$$$       ",
"      -----------   &&&&&&&&&&&  ((((((((((   $$$$$$$$$$$$      ",
"      ------------   &&&&&&&&&&  (((((((((   $$$$$$$$$$$$$      ",
"     --------------   &&&&&&&&&  ((((((((   $$$$$$$$$$$$$$$     ",
"     ---------------   &&&&&&&&  (((((((   $$$$$$$$$$$$$$$$     ",
"     ----------------   &&&&&&&  ((((((   $$$$$$$$$$$$$$$$$     ",
"    ------------------   &&&&&&  (((((   $$$$$$$$$$$$$$$$$$$    ",
"    -------------------   &&&&&  ((((   $$$$$$$$$$$$$$$$$$$$    ",
"    --------------------   &&&&  (((   $$$$$$$$$$$$$$$$$$$$$    ",
"    ---------------------   &&&  ((   $$$$$$$$$$$$$$$$$$$$$$    ",
"   -----------------------   &&  (   $$$$$$$$$$$$$$$$$$$$$$$$   ",
"   ------------------------   &     $$$$$$$$$$$$$$$$$$$$$$$$$   ",
"   -------------------------       $$$$$$$$$$$$$$$$$$$$$$$$$$   ",
"   --------------------------     $$$$$$$$$$$$$$$$$$$$$$$$$$$   ",
"                                                                ",
"                                                                ",
"   #########################       ,,,,,,,,,,,,,,,,,,,,,,,,,,   ",
"   ########################   *     ,,,,,,,,,,,,,,,,,,,,,,,,,   ",
"   #######################   **  %   ,,,,,,,,,,,,,,,,,,,,,,,,   ",
"   ######################   ***  %%   ,,,,,,,,,,,,,,,,,,,,,,,   ",
"    ####################   ****  %%%   ,,,,,,,,,,,,,,,,,,,,,    ",
"    ###################   *****  %%%%   ,,,,,,,,,,,,,,,,,,,,    ",
"    ##################   ******  %%%%%   ,,,,,,,,,,,,,,,,,,,    ",
"    #################   *******  %%%%%%   ,,,,,,,,,,,,,,,,,,    ",
"     ###############   ********  %%%%%%%   ,,,,,,,,,,,,,,,,     ",
"     ##############   *********  %%%%%%%%   ,,,,,,,,,,,,,,,     ",
"     #############   **********  %%%%%%%%%   ,,,,,,,,,,,,,,     ",
"      ###########   ***********  %%%%%%%%%%   ,,,,,,,,,,,,      ",
"      ##########   ************  %%%%%%%%%%%   ,,,,,,,,,,,      ",
"       ########   *************  %%%%%%%%%%%%   ,,,,,,,,,       ",
"       #######   **************  %%%%%%%%%%%%%   ,,,,,,,        ",
"        #####   ***************  %%%%%%%%%%%%%%   ,,,,,,        ",
"         ###   ****************  %%%%%%%%%%%%%%%   ,,,,         ",
"          #   *****************  %%%%%%%%%%%%%%%%   ,,          ",
"             ******************  %%%%%%%%%%%%%%%%%              ",
"            *******************  %%%%%%%%%%%%%%%%%%             ",
"             ******************  %%%%%%%%%%%%%%%%%%             ",
"              *****************  %%%%%%%%%%%%%%%%%              ",
"                ***************  %%%%%%%%%%%%%%%                ",
"                  *************  %%%%%%%%%%%%%                  ",
"                    ***********  %%%%%%%%%%%                    ",
"                      *********  %%%%%%%%%                      ",
"                          *****  %%%%%                          ",
"                                                                ",
"                                                                ",
"                                                                ",
"                                                                "
} ;
