/* XPM */
static const char *tools[] = {
/* width height ncolors chars_per_pixel */
"32 32 5 1",
/* colors */
"` c black",
"a c grey",
"b c red",
"c c white",
"d c yellow",
/* pixels */
"cccccccccccccccccccccccccccccccc",
"cccccccccccccccccccccccccccccccc",
"cccccccccccccccccccccccccccccccc",
"cccccccccccccccccccccccccccccccc",
"cccccccccccccccccccccccccccccccc",
"cccccccccccccccccccccccccccccccc",
"cccccccccccccccccccccccccccccccc",
"cccccccccccccccccccccccccccccccc",
"cccccccccccccccccccccccccccccccc",
"ccccccccc``ccccccccccccccccccccc",
"cccccccc````cccccccccccccccccccc",
"ccccccc`a``a`cccccccccc```a`````",
"ccccccc`a``a`cccccccccc```a`````",
"cccccc`aa``aa`ccccccccc`````````",
"cccccc`aa``aa`cccccccccc``aaaa`c",
"cccccc`aaaaaa`cccccccccc``aaaa`c",
"```````aa``aa````````````aaaaa`c",
"`dddddd`a``a`dddddddd`aaaaaaaa`c",
"`dddddd`aaaa`dddddddd`a``aaaaa`c",
"`dddddd``aaaa`ddddddd`aaaaaaaa`c",
"````````a`aaa````````````aaaaa`c",
"cccccc`aa``aaa`ccccccccc```````c",
"ccccc`aa`cc`aaa`ccccccccc`aaaa`c",
"cccc`aa`cccc`aa`ccccccccc`aaa``c",
"caca`bb`acac`bb`acacacac`a`a``cc",
"caaa`bb`aaaa`bb`aaaaaaa`a`a``ccc",
"cccc`bb`cccc`bb`cccccc`a`a``cccc",
"cccc`bb`cccc`bb`cccc``````ccacaa",
"cccc`bb`cccc`bb`ccccccccccaaaaaa",
"ccccc`b`cccc`b`ccccccccccccccccc",
"cccccc``acac``acacacaccccccccccc",
"cccccccaaaaaaacaaaaaaccccccccccc"
};
