/* XPM */
static char *noname[] = {
/* width height ncolors chars_per_pixel */
"32 32 23 1",
/* colors */
"` c #CBFFFF",
"a c #AB0000",
"b c #220000",
"c c #326565",
"d c #440000",
"e c #EF0000",
"f c #550000",
"g c #00EF00",
"h c #770000",
"i c #99CCCC",
"j c #00AB00",
"k c #008900",
"l c #007700",
"m c #005500",
"n c #BA0000",
"o c #00DC00",
"p c #00BA00",
"q c #DC0000",
"r c #33FE00",
"s c #FE0000",
"t c #004400",
"u c #890000",
"v c #002200",
/* pixels */
"```````````````````````````````i",
"`iiiiiiiiiiiiiiiiiiiiiiiiiiiiiic",
"`iiiiiiiiiiiiiiiiiiiiiiiiiiiiiic",
"`iiiiiiiiiiiiiiiiiiiviiiiiiiiiic",
"`iiiiiiiiiiiiiiiiiivlviiiiiiiiic",
"`iiiiiiiiiiiiiiiiivllmviiiiiiiic",
"`iiiiiiiiiiiiiiiiiivlmmviiiiiiic",
"`iiiiiiiiiiiiiiiiiiivmmtviiiiiic",
"`iiivrvvvgvvvvvvvvvvvvmttviiiiic",
"`iiiirrgggoooppjjkkllmmttvviiiic",
"`iiiiivgvvvooppjjkkllmmttvvviiic",
"`iiiiiigggoooppjjkkllmmttvviiiic",
"`iiiiiiivgvvvpvvvvvvvvmttviiiiic",
"`iiiiiiiiiiiiiiiiiiivmmtviiiiiic",
"`iiiiiiiiiibiiiiiiivlmmviiiiiiic",
"`iiiiiiiiibnbiiiiivllmviiiiiiiic",
"`iiiiiiiibqnnbiiiiivlviiiiiiiiic",
"`iiiiiiibqqnbiiiiiiiviiiiiiiiiic",
"`iiiiiibeqqbiiiiiiiiiiiiiiiiiiic",
"`iiiiibeeqbbbbbbbbbbbbfbbbbbiiic",
"`iiiibseeqqnnaauuhhhfffdddbiiiic",
"`iiibsseeqqnnaauuhhhfbbbdbiiiiic",
"`iiiibseeqqnnaauuhhhfffddiiiiiic",
"`iiiiibeeqbbbbbbbbhbbbfbiiiiiiic",
"`iiiiiibeqqbiiiiiiiiiiiiiiiiiiic",
"`iiiiiiibqqnbiiiiiiiiiiiiiiiiiic",
"`iiiiiiiibqnnbiiiiiiiiiiiiiiiiic",
"`iiiiiiiiibnbiiiiiiiiiiiiiiiiiic",
"`iiiiiiiiiibiiiiiiiiiiiiiiiiiiic",
"`iiiiiiiiiiiiiiiiiiiiiiiiiiiiiic",
"`iiiiiiiiiiiiiiiiiiiiiiiiiiiiiic",
"iccccccccccccccccccccccccccccccc"
};
