/* XPM */
static const char * glnemo35_xpm[] = {
"34 29 384 2",
"  	c None",
". 	c #000000",
"+ 	c #060201",
"@ 	c #020100",
"# 	c #1C0804",
"$ 	c #330F08",
"% 	c #3F130A",
"& 	c #090301",
"* 	c #230A05",
"= 	c #4A160B",
"- 	c #310E07",
"; 	c #2E0D07",
"> 	c #0C0302",
", 	c #1F0905",
"' 	c #070201",
") 	c #160703",
"! 	c #080201",
"~ 	c #010000",
"{ 	c #050101",
"] 	c #170704",
"^ 	c #040101",
"/ 	c #1B0804",
"( 	c #040100",
"_ 	c #200905",
": 	c #290C06",
"< 	c #53180D",
"[ 	c #190704",
"} 	c #140603",
"| 	c #170703",
"1 	c #361008",
"2 	c #2B0D06",
"3 	c #0C0402",
"4 	c #2C0D07",
"5 	c #0D0402",
"6 	c #030100",
"7 	c #0E0402",
"8 	c #1A0804",
"9 	c #43140A",
"0 	c #220A05",
"a 	c #180704",
"b 	c #351008",
"c 	c #3F1209",
"d 	c #1E0905",
"e 	c #130603",
"f 	c #100502",
"g 	c #42140A",
"h 	c #4B160B",
"i 	c #3B1109",
"j 	c #2F0E07",
"k 	c #56190D",
"l 	c #4C160B",
"m 	c #46150A",
"n 	c #2A0C06",
"o 	c #270B06",
"p 	c #6D2011",
"q 	c #250B06",
"r 	c #090201",
"s 	c #130503",
"t 	c #120503",
"u 	c #020000",
"v 	c #1D0904",
"w 	c #8A2915",
"x 	c #5B1B0E",
"y 	c #4E170C",
"z 	c #5A1A0E",
"A 	c #812613",
"B 	c #952C17",
"C 	c #651E0F",
"D 	c #802613",
"E 	c #581A0D",
"F 	c #0B0302",
"G 	c #41130A",
"H 	c #49150B",
"I 	c #51180C",
"J 	c #340F08",
"K 	c #260B06",
"L 	c #942C16",
"M 	c #9B2E17",
"N 	c #A2331A",
"O 	c #992D17",
"P 	c #9A2D17",
"Q 	c #6E2010",
"R 	c #732211",
"S 	c #9D2E18",
"T 	c #7C2413",
"U 	c #2E0E07",
"V 	c #240B05",
"W 	c #0A0302",
"X 	c #320F08",
"Y 	c #1F0904",
"Z 	c #300E07",
"` 	c #250B05",
" .	c #5F1C0E",
"..	c #BB381D",
"+.	c #E94B26",
"@.	c #A23018",
"#.	c #A13119",
"$.	c #CF3D1F",
"%.	c #B7381D",
"&.	c #7A2412",
"*.	c #762312",
"=.	c #53180C",
"-.	c #160603",
";.	c #0F0402",
">.	c #030101",
",.	c #050201",
"'.	c #42130A",
").	c #3C1209",
"!.	c #732212",
"~.	c #9B3018",
"{.	c #D64222",
"].	c #FE6A36",
"^.	c #E54B26",
"/.	c #DC4523",
"(.	c #FC6A36",
"_.	c #FE6534",
":.	c #F6532A",
"<.	c #FD703A",
"[.	c #E04926",
"}.	c #C33B1E",
"|.	c #982D17",
"1.	c #722211",
"2.	c #601C0E",
"3.	c #210A05",
"4.	c #110502",
"5.	c #371008",
"6.	c #4F170C",
"7.	c #5A1A0D",
"8.	c #CB3D1F",
"9.	c #FA552C",
"0.	c #E24725",
"a.	c #AD351B",
"b.	c #EE6132",
"c.	c #ED512A",
"d.	c #E44523",
"e.	c #D54121",
"f.	c #EF4925",
"g.	c #E0542B",
"h.	c #F85E30",
"i.	c #F66534",
"j.	c #6C1F10",
"k.	c #712111",
"l.	c #691F10",
"m.	c #54180C",
"n.	c #AA321A",
"o.	c #BB3D1F",
"p.	c #F44E28",
"q.	c #C63B1E",
"r.	c #822614",
"s.	c #7F2513",
"t.	c #712110",
"u.	c #6D2010",
"v.	c #F05129",
"w.	c #FD793E",
"x.	c #F48C47",
"y.	c #FEA555",
"z.	c #FFA454",
"A.	c #FA6A36",
"B.	c #BA361C",
"C.	c #892814",
"D.	c #892815",
"E.	c #752212",
"F.	c #3A1109",
"G.	c #2D0D07",
"H.	c #1D0804",
"I.	c #9C2E18",
"J.	c #C33C1F",
"K.	c #E14523",
"L.	c #EB5029",
"M.	c #CD4020",
"N.	c #C1391D",
"O.	c #B1341B",
"P.	c #AB321A",
"Q.	c #D44925",
"R.	c #F18A47",
"S.	c #FDA054",
"T.	c #FFE482",
"U.	c #FFFB94",
"V.	c #FFFFBD",
"W.	c #FFFBA2",
"X.	c #FF934C",
"Y.	c #F15129",
"Z.	c #DA4423",
"`.	c #D03D1F",
" +	c #280C06",
".+	c #150603",
"++	c #681F10",
"@+	c #A63119",
"#+	c #B7361C",
"$+	c #CC3E20",
"%+	c #FB5A2E",
"&+	c #E64725",
"*+	c #842613",
"=+	c #C33C1E",
"-+	c #FD944D",
";+	c #FFED93",
">+	c #FFFFD8",
",+	c #FFFFF5",
"'+	c #FFFFEF",
")+	c #FFFFD2",
"!+	c #FFF48D",
"~+	c #FFA152",
"{+	c #FD6936",
"]+	c #942B16",
"^+	c #6C2010",
"/+	c #320F07",
"(+	c #240A05",
"_+	c #45140A",
":+	c #44140A",
"<+	c #180703",
"[+	c #A73219",
"}+	c #DE4825",
"|+	c #7B2412",
"1+	c #D8522A",
"2+	c #F88D48",
"3+	c #FFF6AD",
"4+	c #FFFFFC",
"5+	c #FFFFFF",
"6+	c #FFFFF4",
"7+	c #FFFFA7",
"8+	c #FFD372",
"9+	c #FE723A",
"0+	c #CD4322",
"a+	c #702111",
"b+	c #C13C1F",
"c+	c #9A3019",
"d+	c #49160B",
"e+	c #6A1F10",
"f+	c #8F2A15",
"g+	c #A9351B",
"h+	c #B4361C",
"i+	c #B3391D",
"j+	c #FEAC58",
"k+	c #FFFCA9",
"l+	c #FFFFEE",
"m+	c #FFF698",
"n+	c #EF5029",
"o+	c #F56232",
"p+	c #8E2B16",
"q+	c #9E2F18",
"r+	c #AA331A",
"s+	c #40130A",
"t+	c #832714",
"u+	c #BF3F20",
"v+	c #F6572C",
"w+	c #F15E30",
"x+	c #FF984E",
"y+	c #FFEC8A",
"z+	c #FFFFEA",
"A+	c #FFFFBA",
"B+	c #FFBE61",
"C+	c #FF7B3F",
"D+	c #FB6B37",
"E+	c #EA592E",
"F+	c #D64825",
"G+	c #3E1209",
"H+	c #110503",
"I+	c #0A0301",
"J+	c #902A16",
"K+	c #C64523",
"L+	c #FF713A",
"M+	c #FF6F39",
"N+	c #FFA655",
"O+	c #FFFEA4",
"P+	c #FFFFE1",
"Q+	c #FFE484",
"R+	c #FE8343",
"S+	c #FD6E38",
"T+	c #D44724",
"U+	c #6A1F0F",
"V+	c #842714",
"W+	c #391108",
"X+	c #381008",
"Y+	c #50170C",
"Z+	c #C54422",
"`+	c #FF9A4F",
" @	c #FFD979",
".@	c #FFFFD3",
"+@	c #FFFFFD",
"@@	c #FFFDD3",
"#@	c #FFCC73",
"$@	c #FF9B4F",
"%@	c #FB6031",
"&@	c #FF5F31",
"*@	c #FE6C37",
"=@	c #A03019",
"-@	c #661E0F",
";@	c #671E0F",
">@	c #B4381C",
",@	c #E84C27",
"'@	c #FA773C",
")@	c #FFEF91",
"!@	c #FFFFD1",
"~@	c #FFF093",
"{@	c #FFCA69",
"]@	c #EE7039",
"^@	c #C54221",
"/@	c #EE522A",
"(@	c #DD4423",
"_@	c #D33E20",
":@	c #641D0F",
"<@	c #BD3B1E",
"[@	c #FF5A2E",
"}@	c #FC6032",
"|@	c #FFA756",
"1@	c #FFEE88",
"2@	c #FFFC96",
"3@	c #FFC266",
"4@	c #F66332",
"5@	c #E6532A",
"6@	c #972F18",
"7@	c #A13019",
"8@	c #C03D1F",
"9@	c #E44F28",
"0@	c #C43B1E",
"a@	c #862714",
"b@	c #B7381C",
"c@	c #A33018",
"d@	c #FD5E30",
"e@	c #FC6F38",
"f@	c #FE8D48",
"g@	c #FD7B3F",
"h@	c #FF743B",
"i@	c #ED4E28",
"j@	c #A33219",
"k@	c #852714",
"l@	c #8B2915",
"m@	c #742211",
"n@	c #DA4322",
"o@	c #BD391D",
"p@	c #3D1209",
"q@	c #7C2513",
"r@	c #4D170B",
"s@	c #C73F20",
"t@	c #F34C27",
"u@	c #F9532A",
"v@	c #BD381C",
"w@	c #BB3A1D",
"x@	c #882814",
"y@	c #8C2915",
"z@	c #832614",
"A@	c #772312",
"B@	c #AF331A",
"C@	c #CD3E1F",
"D@	c #B9381D",
"E@	c #47150B",
"F@	c #6F2111",
"G@	c #B0341B",
"H@	c #7B2513",
"I@	c #722111",
"J@	c #EE4B27",
"K@	c #F3542B",
"L@	c #9B2F18",
"M@	c #A13018",
"N@	c #912B16",
"O@	c #A83119",
"P@	c #822613",
"Q@	c #A93219",
"R@	c #DF4222",
"S@	c #752211",
"T@	c #1E0904",
"U@	c #B8371C",
"V@	c #D74423",
"W@	c #972D17",
"X@	c #B3351B",
"Y@	c #892915",
"Z@	c #52180C",
"`@	c #50180C",
" #	c #972C17",
".#	c #B2351B",
"+#	c #792412",
"@#	c #2B0C06",
"##	c #350F08",
"$#	c #6B2010",
"%#	c #AB331A",
"&#	c #D13F20",
"*#	c #C2391D",
"=#	c #9F2F18",
"-#	c #5C1B0E",
";#	c #48150B",
">#	c #5E1C0E",
",#	c #54190D",
"'#	c #571A0D",
")#	c #3C1109",
". . . . . . . + . . @ # $ % & * * = - ; > , ' ) ! . . ~ ~ . . . . . ",
". . . { ] ^ ^ / ' . ( _ : < [ } ! | 1 2 3 4 | @ . @ @ 5 | @ . . . . ",
". . 6 ^ 7 @ . ! 7 4 8 9 # $ 1 0 } a b c ] 7 * @ ^ ) , ! d 6 . . . . ",
". . e 0 * f . 7 g h e e ; i _ 4 j $ k l , | m n & o p q r } s . . . ",
". ~ 8 t } ~ ~ { 3 } u v w x 0 y # z A B C D E y e F G a ~ ( & + ~ . ",
". . . . . ^ : H I J K , L M N O c P Q R S T U ' / V e ! 8 { W ] ~ . ",
". . . ~ ~ | X Y Z n j `  ...+.@.#.$.%.&.*.=.V i l -.v ; ;.~ >.| & [ ",
"[ ,.. ] | j '.).!.9 I ~.{.].^./.(._.:.<.[.}.|.1.|.2.0 ).3.. @ 4.F & ",
"5 ,.6 5 5.y I 6.c 7.8.9.0.a.b.c.d.e.f.g.h.i.@.j.k. .: 4 & 6 ! 3.4 ~ ",
". ! * * , - ; l.m.n.o.p.q.r.s.t.u.v.w.x.y.z.A.B.C.D.E.F.r & G.- 3 . ",
"~ a H.s q -.b I.J.K.L.M.N.O.P.Q.R.S.T.U.V.W.X.Y.Z.`.D.6. +{ 6 6 ~ . ",
"K o .+[  +++y @+}.#+$+%+&+*+=+-+;+>+,+'+)+!+~+{+]+w ^+t _ /+/ (+d + ",
"+ ' 6 _+:+h <+l.O k [+}+|+1+2+3+4+5+5+6+7+8+9+0+a+b+c+t & $ d+: j a ",
". . @ 4.4 -.8 e+f+g+@+h+i+j+k+,+5+5+5+l+m+z.n+o+p+q+r+V 8 6 .+, 6 .+",
". . 6 .+r F s+A t+u+v+w+x+y+z+5+5+5+5+A+B+C+D+E+F+|+^+ +G+[ f 4 W ~ ",
"H+I+F _ + | 0 '.J+K+L+M+N+O+'+5+5+5+P+Q+R+S+T+U+&.a+V+$ Z J ' 5 ! 6 ",
"2 , t f 6 _ W+X+Y+Z+`+`+ @.@+@5++@@@#@$@%@&@*@=@-@6.;@i Z _ 7 q , .+",
"5 X _ d + 8 Y+h ^+>@,@'@)@P+,+!@~@{@]@^@/@(@_@w k.:@5.G. + +;.G.X 4.",
"6 | 8 ! } + s+:+<@[@}@|@1@O+2@3@4@5@6@7@8@9@0@w P E :+1.} n .+| F.! ",
". @ : H+3 @ 7 ` a@b@c@d@e@f@g@h@i@j@k@l@m@n@o@;@k@p@H *.0 / <+7 ~ . ",
". 6 } + . . I+q@V+r@s@t@u@v@q.w@x@y@z@A@B@C@#+D@:@E@F@G@A@: 4.> ^ { ",
". . . . 6 + 6 :+H@I@A@J@K@L@M@r+M@N@O@P@Q@R@P.S@=.T@r@E 1 ( ' & 5 ) ",
". . . u 0 /+3.# l 9 p@p+&.D #+U@V@W@X@Y@R Q@T Z@9 = 1 f , + . . . . ",
". . . . W E@i K H G+x `@.+m &.S n. #.#+#Y+p@T@G @#4.~ . . u 3 6 . . ",
". . . . I+X+8 o ##u.7.* 3 * $#W@%#&#*#^+s+, K j j 7 5 o I+@ .+,.. . ",
". . . . & j ;.T@ +n _+).0 .+l *.=.P =#-#;#:+E /+Z [ f 6.a . . . . . ",
". . . 6 T@) F + a > j j : F q :+>#,#1 b  +'#w h 8 F { 6 . . . . . . ",
". . . ~ ! { # & I+6 7 , # 6 - )#* K 1 j G+$ } J 7 5 } . . . . . . . ",
". . . . . . @ @ [ I+0 4.~ ~ 2 6.} 7 ;.b , 0 / ;.e ~ ~ . . . . . . . "};
